PathFileType	4	(X/Y/Z)	pose_F01_0-89.trc
DataRate	CameraRate	NumFrames	NumMarkers	Units	OrigDataRate	OrigDataStartFrame	OrigNumFrames
30	30	7	21	m	30	29	89
Frame#	Time	CHip			RHip			RKnee			RAnkle			RBigToe			RSmallToe			RHeel			LHip			LKnee			LAnkle			LBigToe			LSmallToe			LHeel			Neck			Nose			RShoulder			RElbow			RWrist			LShoulder			LElbow			LWrist			
		X1	Y1	Z1	X2	Y2	Z2	X3	Y3	Z3	X4	Y4	Z4	X5	Y5	Z5	X6	Y6	Z6	X7	Y7	Z7	X8	Y8	Z8	X9	Y9	Z9	X10	Y10	Z10	X11	Y11	Z11	X12	Y12	Z12	X13	Y13	Z13	X14	Y14	Z14	X15	Y15	Z15	X16	Y16	Z16	X17	Y17	Z17	X18	Y18	Z18	X19	Y19	Z19	X20	Y20	Z20	X21	Y21	Z21	
29	0.9666666666666667	-0.2518393900274443	1.8840980996948486	-0.6066137923723999	-0.2664327351765603	1.880130039747869	-0.5440756003107957	-0.19584529631436082	1.7290167387203068	-0.6120090556497891													-0.23569310936566998	1.8894620603040593	-0.6775459498291966	-0.23734977252374345	1.724919319230458	-0.6450266272867584				-0.44124918619919706	1.521230380701598	-0.9745484938546997	-0.4407813295869996	1.5239691070896415	-0.972902202689888				-0.2445851263998478	2.0632316903973535	-0.6044989471089344	-0.22237374512218022	2.132782147920021	-0.6116237318304925	-0.26500544057243647	2.0571167315330703	-0.5204105085117274	-0.25995601324123246	2.0728845198975048	-0.3954334688861232	-0.25348088160526444	2.1359190440958726	-0.43863768136277	-0.22345319481336268	2.0720581083031933	-0.6947936256432288	-0.159578193860663	2.108324461204939	-0.779324326877504	-0.1721484539542319	2.168101989767378	-0.7645557024818709
30	1.0	-0.25387253566011875	1.879644860976111	-0.6241380263842955	-0.26672265928681416	1.8750317351512304	-0.5552745152074473	-0.19584529631436082	1.7290167387203068	-0.6120090556497891													-0.23597643049572734	1.8852832526721717	-0.6886239331635886	-0.23734977252374345	1.724919319230458	-0.6450266272867584				-0.44124918619919706	1.521230380701598	-0.9745484938546997	-0.4407813295869996	1.5239691070896415	-0.972902202689888				-0.24233520492677948	2.0560926845974903	-0.6134401587580756	-0.21718371849200044	2.117543702154	-0.6268171200091313	-0.25876848341062997	2.0493736445544384	-0.5238336569943612	-0.2621126047250649	2.0222220973932217	-0.4314413945826899	-0.2506779578431634	2.0782519116089215	-0.4586149078829557	-0.2217814004053877	2.06555623558929	-0.7067476453222206	-0.6774375896387573	1.9885236234958916	-0.2619207638140756	-0.4495093340877144	2.087582658844909	-0.47450784617583996
31	1.0333333333333334	-0.25382853354423823	1.8659286013274368	-0.6341372622732165	-0.2668976469096956	1.8611324387718167	-0.5652033698873575	-0.19584529631436082	1.7290167387203068	-0.6120090556497891													-0.23628505912416004	1.8706617008901363	-0.7006846381155684	-0.23734977252374345	1.724919319230458	-0.6450266272867584				-0.44124918619919706	1.521230380701598	-0.9745484938546997	-0.4407813295869996	1.5239691070896415	-0.972902202689888				-0.24408740939148504	2.0357835802445288	-0.6236808802230733	-0.21308404750461293	2.087887185410993	-0.6145286915195317	-0.2650087990969243	2.0293345252259147	-0.5301772563143365	-0.26426919620889744	1.9715596748889386	-0.4674493202792565	-0.2478750340810623	2.020584779121971	-0.4785921344031414	-0.21958673010807414	2.0457334184631635	-0.7146084807475465	-1.1952969854168518	1.868722785786844	0.2554827992493529	-0.7268702142211969	2.0070633279224404	-0.18445998986980905
32	1.0666666666666667	-0.2537845314283577	1.8522123416787626	-0.6441364981621377	-0.26707263453257696	1.8472331423924029	-0.5751322245672678	-0.19584529631436082	1.7290167387203068	-0.6120090556497891													-0.23659368775259274	1.856040149108101	-0.7127453430675482	-0.23734977252374345	1.724919319230458	-0.6450266272867584				-0.44124918619919706	1.521230380701598	-0.9745484938546997	-0.4407813295869996	1.5239691070896415	-0.972902202689888				-0.23828792465339033	2.0138248690528453	-0.6275042384064513	-0.2019720561788174	2.060374689342928	-0.6226729690583888	-0.2605840518116672	2.0046580800715263	-0.5282684269284048	-0.2664257876927299	1.9208972523846555	-0.5034572459758232	-0.2450721103189612	1.9629176466350198	-0.49856936092332715	-0.21676331307809277	2.0230180183326265	-0.7302246507690625	-1.174207724663083	1.836132154753961	0.2103758626135257	-1.0042310943546793	1.9265439969999714	0.10558786643622187
33	1.1	-0.2537405293124772	1.8384960820300884	-0.6541357340510587	-0.2672476221554584	1.833333846012989	-0.585061079247178	-0.19584529631436082	1.7290167387203068	-0.6120090556497891													-0.23690231638102544	1.8414185973260655	-0.724806048019528	-0.23734977252374345	1.724919319230458	-0.6450266272867584				-0.44124918619919706	1.521230380701598	-0.9745484938546997	-0.4407813295869996	1.5239691070896415	-0.972902202689888				-0.23790566695791	1.999442863868586	-0.6322497800563581	-0.19086006485302184	2.0328621932748634	-0.6308172465972458	-0.25839402342895984	1.9888670945278921	-0.5343577461356498	-0.27878707977870315	1.9039344327310184	-0.5375561572458908	-0.24226918655686014	1.9052505141480687	-0.5185465874435129	-0.21548085298185035	2.0067598184282747	-0.7322551463018875	-1.1580100320684257	1.8183962895206738	0.1722449641042621	-1.2815919744881619	1.8460246660775026	0.39563572274225284
34	1.1333333333333333	-0.25070111609446843	1.839136741600839	-0.6616984577977895	-0.2650720761170086	1.836872917257709	-0.596152005580341	-0.19584529631436082	1.7290167387203068	-0.6120090556497891													-0.23349380543614678	1.8435159706118478	-0.7325094587634317	-0.23734977252374345	1.724919319230458	-0.6450266272867584				-0.44124918619919706	1.521230380701598	-0.9745484938546997	-0.4407813295869996	1.5239691070896415	-0.972902202689888				-0.23596305936676412	1.996119837983219	-0.6435112273433043	-0.19633966447259085	2.016666158208451	-0.6267509094051013	-0.2566456418722071	1.989964770076102	-0.5459564315724822	-0.2801815801508414	1.9199088250378407	-0.5416564900825548	-0.23603366058446396	1.947439427061589	-0.5558075420521373	-0.20801772715717792	2.001140166471774	-0.7445425058699805	-0.21727763297127953	1.9147063347654918	-0.7906378203713026	-0.19323141285934106	1.941111010317272	-0.720254021016971
35	1.1666666666666667	-0.24566369317889247	1.854439427848101	-0.6680943814790731	-0.26228611312069483	1.8521443357918728	-0.6004652321950227	-0.19584529631436082	1.7290167387203068	-0.6120090556497891													-0.23058259869185477	1.858862175495183	-0.7364824051274111	-0.23734977252374345	1.724919319230458	-0.6450266272867584				-0.44124918619919706	1.521230380701598	-0.9745484938546997	-0.4407813295869996	1.5239691070896415	-0.972902202689888				-0.23156295322277218	2.015171148127787	-0.6612360259103052	-0.2060247222862747	2.0459868480362275	-0.6290630865093828	-0.257695134790841	2.0086728317904683	-0.5630658273548704	-0.26988167104523253	1.926983579283941	-0.5488862243091485	-0.2297981346120678	1.9896283399751094	-0.5930684966607617	-0.20367809757103428	2.0211263435617073	-0.7540775907049229	-1.161695343419316	1.838557374130088	0.16586048914529572	-0.19165659818947273	1.9739090944552107	-0.7220892599663751
